<svg width="760" height="625" viewBox="0 0 760 625" fill="none" xmlns="http://www.w3.org/2000/svg">
<path d="M372 280C387.667 301.667 409.6 353 372 385C325 425 268 405 258 385C250 369 227.333 403.667 217 423C222 428 239.8 441.8 271 457C302.2 472.2 365.333 452 393 440C413.667 416.333 453 360.8 445 328C435 287 438 285 423 255C411 231 409.333 235 410 240L372 280Z" fill="#FF0000"/>
<path d="M236 328C236.333 315 241.2 285.4 258 271C274.8 256.6 309.667 250.333 325 249L330 203C303 202.333 242.6 208.8 217 240C191.4 271.2 184.333 311.667 184 328H236Z" fill="#FF0000"/>
<path d="M433 225C457.667 254.667 495.6 335.8 450 423C404.4 510.2 275.667 494 217 475L192 440L173 451L217 527C251.333 536.667 328.4 552.4 362 538C395.6 523.6 476 440 512 400C519.667 373.333 532 312 520 280C508 248 482.333 206.667 471 190L433 225Z" fill="#FF0000"/>
<path d="M372 280C387.667 301.667 409.6 353 372 385C325 425 268 405 258 385C250 369 227.333 403.667 217 423C222 428 239.8 441.8 271 457C302.2 472.2 365.333 452 393 440C413.667 416.333 453 360.8 445 328C435 287 438 285 423 255C411 231 409.333 235 410 240L372 280Z" stroke="#F1000B"/>
<path d="M236 328C236.333 315 241.2 285.4 258 271C274.8 256.6 309.667 250.333 325 249L330 203C303 202.333 242.6 208.8 217 240C191.4 271.2 184.333 311.667 184 328H236Z" stroke="#F1000B"/>
<path d="M433 225C457.667 254.667 495.6 335.8 450 423C404.4 510.2 275.667 494 217 475L192 440L173 451L217 527C251.333 536.667 328.4 552.4 362 538C395.6 523.6 476 440 512 400C519.667 373.333 532 312 520 280C508 248 482.333 206.667 471 190L433 225Z" stroke="#F1000B"/>
<path d="M111 330H150C151.667 301.333 163.8 238.4 199 216C234.2 193.6 253.667 182.667 259 180L308 171H332L337 151L232 134C203 147.667 139.4 188.4 117 242C94.6 295.6 103.667 323 111 330Z" fill="#F1000B" stroke="#F1000B"/>
<path d="M15 88L46 1L759 229L15 88Z" fill="#414040" stroke="black"/>
<path d="M260.5 601L1 125L185.5 624L260.5 601Z" fill="#414040" stroke="black"/>
<path d="M289 618L681.5 248L750 314.5L289 618Z" fill="#424141" stroke="black"/>
</svg>
