<svg width="289" height="87" viewBox="0 0 289 87" fill="none" xmlns="http://www.w3.org/2000/svg">
<g filter="url(#filter0_d)">
<path d="M51.0079 35.5989C52.9508 38.2858 55.6707 44.6517 51.0079 48.62C45.1794 53.5805 38.1108 51.1003 36.8707 48.62C35.8786 46.6359 33.0677 50.9349 31.7863 53.3324C32.4064 53.9525 34.6137 55.6638 38.4829 57.5488C42.352 59.4338 50.1812 56.9288 53.6122 55.4406C56.175 52.5057 61.0528 45.619 60.0607 41.5514C58.8206 36.467 59.1926 36.219 57.3325 32.4987C55.8443 29.5224 55.6377 30.0185 55.7203 30.6385L51.0079 35.5989Z" fill="#FF0000"/>
<path d="M34.1425 41.5514C34.1838 39.9393 34.7874 36.2686 36.8707 34.4828C38.9541 32.6971 43.2779 31.92 45.1794 31.7546L45.7995 26.0501C42.4512 25.9675 34.961 26.7694 31.7863 30.6385C28.6116 34.5076 27.7353 39.5259 27.694 41.5514H34.1425Z" fill="#FF0000"/>
<path d="M58.5726 28.7784C61.6315 32.4573 66.3356 42.5187 60.6808 53.3324C55.0259 64.1462 39.0616 62.1372 31.7863 59.781L28.686 55.4406L26.3298 56.8047L31.7863 66.2295C36.044 67.4283 45.6011 69.3794 49.7678 67.5937C53.9346 65.8079 63.905 55.4406 68.3694 50.4802C69.3202 47.1733 70.8496 39.5673 69.3615 35.5989C67.8734 31.6306 64.6904 26.5048 63.285 24.438L58.5726 28.7784Z" fill="#FF0000"/>
<path d="M51.0079 35.5989C52.9508 38.2858 55.6707 44.6517 51.0079 48.62C45.1794 53.5805 38.1108 51.1003 36.8707 48.62C35.8786 46.6359 33.0677 50.9349 31.7863 53.3324C32.4064 53.9525 34.6137 55.6638 38.4829 57.5488C42.352 59.4338 50.1812 56.9288 53.6122 55.4406C56.175 52.5057 61.0528 45.619 60.0607 41.5514C58.8206 36.467 59.1926 36.219 57.3325 32.4987C55.8443 29.5224 55.6377 30.0185 55.7203 30.6385L51.0079 35.5989Z" stroke="#F1000B"/>
<path d="M34.1425 41.5514C34.1838 39.9393 34.7874 36.2686 36.8707 34.4828C38.9541 32.6971 43.2779 31.92 45.1794 31.7546L45.7995 26.0501C42.4512 25.9675 34.961 26.7694 31.7863 30.6385C28.6116 34.5076 27.7353 39.5259 27.694 41.5514H34.1425Z" stroke="#F1000B"/>
<path d="M58.5726 28.7784C61.6315 32.4573 66.3356 42.5187 60.6808 53.3324C55.0259 64.1462 39.0616 62.1372 31.7863 59.781L28.686 55.4406L26.3298 56.8047L31.7863 66.2295C36.044 67.4283 45.6011 69.3794 49.7678 67.5937C53.9346 65.8079 63.905 55.4406 68.3694 50.4802C69.3202 47.1733 70.8496 39.5673 69.3615 35.5989C67.8734 31.6306 64.6904 26.5048 63.285 24.438L58.5726 28.7784Z" stroke="#F1000B"/>
<path d="M18.6411 41.7995H23.4775C23.6842 38.2445 25.1889 30.4401 29.5541 27.6623C33.9192 24.8844 36.3333 23.5286 36.9947 23.1979L43.0712 22.0818H46.0475L46.6675 19.6016L33.6464 17.4934C30.0501 19.1882 22.163 24.2396 19.3852 30.8865C16.6074 37.5335 17.7317 40.9314 18.6411 41.7995Z" fill="#F1000B" stroke="#F1000B"/>
<path d="M6.73615 11.7889L10.5805 1L99 29.2744L6.73615 11.7889Z" fill="#414040" stroke="black"/>
<path d="M37.1807 75.4063L5 16.3773L27.8799 78.2586L37.1807 75.4063Z" fill="#414040" stroke="black"/>
<path d="M40.715 77.5145L89.3892 31.6306L97.8839 39.8773L40.715 77.5145Z" fill="#424141" stroke="black"/>
<path d="M120.47 45.76C116.902 46.08 113.942 46.24 111.59 46.24C110.022 46.24 108.87 45.872 108.134 45.136C107.398 44.4 107.03 43.248 107.03 41.68V34C107.03 32.32 107.406 31.104 108.158 30.352C108.926 29.584 110.15 29.2 111.83 29.2H120.47V32.56H112.79C111.83 32.56 111.35 33.04 111.35 34V41.68C111.35 42.048 111.454 42.344 111.662 42.568C111.886 42.776 112.166 42.88 112.502 42.88C112.838 42.88 113.206 42.88 113.606 42.88C114.006 42.864 114.422 42.848 114.854 42.832C115.286 42.816 115.718 42.8 116.15 42.784C116.598 42.768 117.166 42.736 117.854 42.688C118.558 42.64 119.43 42.584 120.47 42.52V45.76ZM135.113 42.4C135.113 43.6 134.769 44.544 134.081 45.232C133.409 45.904 132.473 46.24 131.273 46.24H125.753C124.553 46.24 123.609 45.904 122.921 45.232C122.249 44.544 121.913 43.6 121.913 42.4V36.88C121.913 35.68 122.249 34.744 122.921 34.072C123.609 33.384 124.553 33.04 125.753 33.04H131.273C132.473 33.04 133.409 33.384 134.081 34.072C134.769 34.744 135.113 35.68 135.113 36.88V42.4ZM130.913 37.24C130.913 36.6 130.593 36.28 129.953 36.28H127.073C126.433 36.28 126.113 36.6 126.113 37.24V42.04C126.113 42.68 126.433 43 127.073 43H129.953C130.593 43 130.913 42.68 130.913 42.04V37.24ZM145.79 33.04C147.086 33.04 148.086 33.52 148.79 34.48C149.526 33.984 150.318 33.624 151.166 33.4C152.03 33.16 152.798 33.04 153.47 33.04H153.71C154.798 33.04 155.67 33.368 156.326 34.024C156.982 34.68 157.31 35.552 157.31 36.64V46H153.11V37.36C153.11 37.12 153.03 36.92 152.87 36.76C152.71 36.6 152.51 36.52 152.27 36.52H152.15C151.43 36.52 150.51 36.68 149.39 37V46H145.19V37.36C145.19 37.12 145.11 36.92 144.95 36.76C144.79 36.6 144.59 36.52 144.35 36.52H144.23C143.51 36.52 142.59 36.68 141.47 37V46H137.27V33.28H140.99L141.23 34.48C141.982 33.984 142.75 33.624 143.534 33.4C144.334 33.16 145.006 33.04 145.55 33.04H145.79ZM166.546 36.52C165.698 36.52 164.738 36.68 163.666 37V42.76H167.266C167.906 42.76 168.226 42.44 168.226 41.8V37.36C168.226 37.12 168.146 36.92 167.986 36.76C167.826 36.6 167.626 36.52 167.386 36.52H166.546ZM163.666 46V50.08H159.466V33.28H163.186L163.426 34.48C164.178 33.984 164.946 33.624 165.73 33.4C166.53 33.16 167.202 33.04 167.746 33.04H168.826C169.914 33.04 170.786 33.368 171.442 34.024C172.098 34.68 172.426 35.552 172.426 36.64V42.16C172.426 43.36 172.082 44.304 171.394 44.992C170.722 45.664 169.786 46 168.586 46H163.666ZM180.463 42.76C181.311 42.76 182.271 42.6 183.343 42.28V33.28H187.543V46H183.823L183.583 44.8C182.831 45.296 182.055 45.664 181.255 45.904C180.471 46.128 179.807 46.24 179.263 46.24H178.183C177.095 46.24 176.223 45.912 175.567 45.256C174.911 44.6 174.583 43.728 174.583 42.64V33.28H178.783V41.92C178.783 42.16 178.863 42.36 179.023 42.52C179.183 42.68 179.383 42.76 179.623 42.76H180.463ZM198.814 46C197.262 46.16 195.742 46.24 194.254 46.24C193.166 46.24 192.294 45.912 191.638 45.256C190.982 44.6 190.654 43.728 190.654 42.64V36.52H189.214V33.28H190.654L191.134 30.4H194.854V33.28H197.854V36.52H194.854V42.04C194.854 42.28 194.934 42.48 195.094 42.64C195.254 42.8 195.454 42.88 195.694 42.88H198.814V46ZM205.19 36.04C204.55 36.04 204.23 36.36 204.23 37V38.32H208.31V37C208.31 36.36 207.99 36.04 207.35 36.04H205.19ZM212.03 45.76C208.942 46.08 206.142 46.24 203.63 46.24C202.542 46.24 201.67 45.912 201.014 45.256C200.358 44.6 200.03 43.728 200.03 42.64V36.88C200.03 35.68 200.366 34.744 201.038 34.072C201.726 33.384 202.67 33.04 203.87 33.04H208.67C209.87 33.04 210.806 33.384 211.478 34.072C212.166 34.744 212.51 35.68 212.51 36.88V41.32H204.23V42.28C204.23 42.52 204.31 42.72 204.47 42.88C204.63 43.04 204.83 43.12 205.07 43.12C206.654 43.12 208.974 43 212.03 42.76V45.76ZM221.981 36.76C220.973 36.76 219.933 37 218.861 37.48V46H214.661V33.28H218.381L218.621 34.84C219.997 33.64 221.437 33.04 222.941 33.04H224.021V36.76H221.981ZM225.436 42.52C229.82 42.76 232.788 42.88 234.34 42.88C234.708 42.88 234.996 42.776 235.204 42.568C235.428 42.344 235.54 42.048 235.54 41.68V39.52H230.02C228.34 39.52 227.116 39.144 226.348 38.392C225.596 37.624 225.22 36.4 225.22 34.72V34C225.22 32.32 225.596 31.104 226.348 30.352C227.116 29.584 228.34 29.2 230.02 29.2H238.444V32.56H230.98C230.02 32.56 229.54 33.04 229.54 34V34.48C229.54 35.44 230.02 35.92 230.98 35.92H235.3C236.868 35.92 238.02 36.288 238.756 37.024C239.492 37.76 239.86 38.912 239.86 40.48V41.68C239.86 43.248 239.492 44.4 238.756 45.136C238.02 45.872 236.868 46.24 235.3 46.24C234.484 46.24 233.62 46.224 232.708 46.192L230.5 46.096C228.868 46.016 227.18 45.904 225.436 45.76V42.52ZM245.978 33.52C247.53 33.2 248.89 33.04 250.058 33.04H251.138C252.226 33.04 253.098 33.368 253.754 34.024C254.41 34.68 254.738 35.552 254.738 36.64V46H250.538V37.12C250.538 36.88 250.458 36.68 250.298 36.52C250.138 36.36 249.938 36.28 249.698 36.28H248.858C248.25 36.28 247.69 36.312 247.178 36.376C246.682 36.44 246.282 36.488 245.978 36.52V46H241.778V29.2H245.978V33.52ZM269.855 42.4C269.855 43.6 269.511 44.544 268.823 45.232C268.151 45.904 267.215 46.24 266.015 46.24H260.495C259.295 46.24 258.351 45.904 257.663 45.232C256.991 44.544 256.655 43.6 256.655 42.4V36.88C256.655 35.68 256.991 34.744 257.663 34.072C258.351 33.384 259.295 33.04 260.495 33.04H266.015C267.215 33.04 268.151 33.384 268.823 34.072C269.511 34.744 269.855 35.68 269.855 36.88V42.4ZM265.655 37.24C265.655 36.6 265.335 36.28 264.695 36.28H261.815C261.175 36.28 260.855 36.6 260.855 37.24V42.04C260.855 42.68 261.175 43 261.815 43H264.695C265.335 43 265.655 42.68 265.655 42.04V37.24ZM279.093 36.52C278.245 36.52 277.285 36.68 276.213 37V42.76H279.813C280.453 42.76 280.773 42.44 280.773 41.8V37.36C280.773 37.12 280.693 36.92 280.533 36.76C280.373 36.6 280.173 36.52 279.933 36.52H279.093ZM276.213 46V50.08H272.013V33.28H275.733L275.973 34.48C276.725 33.984 277.493 33.624 278.277 33.4C279.077 33.16 279.749 33.04 280.293 33.04H281.373C282.461 33.04 283.333 33.368 283.989 34.024C284.645 34.68 284.973 35.552 284.973 36.64V42.16C284.973 43.36 284.629 44.304 283.941 44.992C283.269 45.664 282.332 46 281.133 46H276.213Z" fill="black"/>
</g>
<defs>
<filter id="filter0_d" x="0.531006" y="0.376404" width="288.442" height="86.4987" filterUnits="userSpaceOnUse" color-interpolation-filters="sRGB">
<feFlood flood-opacity="0" result="BackgroundImageFix"/>
<feColorMatrix in="SourceAlpha" type="matrix" values="0 0 0 0 0 0 0 0 0 0 0 0 0 0 0 0 0 0 127 0"/>
<feOffset dy="4"/>
<feGaussianBlur stdDeviation="2"/>
<feColorMatrix type="matrix" values="0 0 0 0 0 0 0 0 0 0 0 0 0 0 0 0 0 0 0.25 0"/>
<feBlend mode="normal" in2="BackgroundImageFix" result="effect1_dropShadow"/>
<feBlend mode="normal" in="SourceGraphic" in2="effect1_dropShadow" result="shape"/>
</filter>
</defs>
</svg>
